<?xml version="1.0" encoding="UTF-8"?>
<svg width="16px" height="15px" viewBox="0 0 16 15" version="1.1" xmlns="http://www.w3.org/2000/svg" xmlns:xlink="http://www.w3.org/1999/xlink">
    <g id="Page-1" stroke="none" stroke-width="1" fill="none" fill-rule="evenodd">
        <g id="Features-web" transform="translate(-241.000000, -69.000000)">
            <g id="00---Header" transform="translate(-2.000000, -6.000000)">
                <g id="chat" transform="translate(243.000000, 75.000000)">
                    <path d="M1.2272146,11.4921735 C0.558539591,11.4921735 0.00630263774,11.0487883 0.00630263774,10.3263764 L0.00630263774,2.16579705 C0.00630263774,1.65628482 0.676187776,1 1.2272146,1 L12.7753904,1 C13.3264173,1 13.9963024,1.65628482 13.9963024,2.16579705 L13.9963024,10.3263764 C13.9963024,11.0487883 13.5789296,11.4921735 12.7753904,11.4921735 L7.33177442,11.4921735 L2.44812657,14.9895646 C2.22956652,15.035098 2.44812657,11.4921735 2.44812657,11.4921735 L1.2272146,11.4921735 Z M4.0007443,8.00130252 C4.55313182,8.00130252 5.00093037,7.55350396 5.00093037,7.00111645 C5.00093037,6.44872893 4.55313182,6.00093037 4.0007443,6.00093037 C3.44835678,6.00093037 3.00055822,6.44872893 3.00055822,7.00111645 C3.00055822,7.55350396 3.44835678,8.00130252 4.0007443,8.00130252 Z M7.00130252,8.00130252 C7.55369004,8.00130252 8.0014886,7.55350396 8.0014886,7.00111645 C8.0014886,6.44872893 7.55369004,6.00093037 7.00130252,6.00093037 C6.44891501,6.00093037 6.00111645,6.44872893 6.00111645,7.00111645 C6.00111645,7.55350396 6.44891501,8.00130252 7.00130252,8.00130252 Z M10.0018607,8.00130252 C10.5542483,8.00130252 11.0020468,7.55350396 11.0020468,7.00111645 C11.0020468,6.44872893 10.5542483,6.00093037 10.0018607,6.00093037 C9.44947323,6.00093037 9.00167467,6.44872893 9.00167467,7.00111645 C9.00167467,7.55350396 9.44947323,8.00130252 10.0018607,8.00130252 Z" id="Shape" fill="#4B9DF4" fill-rule="nonzero"></path>
                    <circle id="Oval-3" fill="#7ED321" cx="13.5" cy="2.5" r="2.5"></circle>
                </g>
            </g>
        </g>
    </g>
</svg>