<?xml version="1.0" encoding="UTF-8"?>
<svg width="37px" height="42px" viewBox="0 0 37 42" version="1.1" xmlns="http://www.w3.org/2000/svg" xmlns:xlink="http://www.w3.org/1999/xlink">
    <!-- Generator: Sketch 42 (36781) - http://www.bohemiancoding.com/sketch -->
    <title>logo</title>
    <desc>Created with Sketch.</desc>
    <defs></defs>
    <g id="Page-1" stroke="none" stroke-width="1" fill="none" fill-rule="evenodd">
        <g id="Main-web" transform="translate(-611.000000, -68.000000)">
            <g id="top" transform="translate(123.000000, 54.000000)">
                <g id="logo" transform="translate(473.000000, 3.000000)">
                    <rect id="Rectangle" x="0" y="0" width="68" height="64"></rect>
                    <path d="M50.3742788,23.7050659 L50.3742788,40.1131159 C50.3742788,41.1346287 49.806777,42.092297 48.9870521,42.6030534 L34.8625629,50.8390007 C33.9797824,51.3497571 32.9078345,51.3497571 32.0250539,50.8390007 L18.0266763,42.6030534 C17.1438957,42.092297 16.6394496,41.1346287 16.6394496,40.1131159 L16.6394496,23.7050659 C16.6394496,22.6835531 17.2069514,21.7258848 18.0266763,21.2151284 L32.0250539,12.9791811 C32.4664442,12.7238029 32.9708903,12.5961138 33.4122806,12.5961138 C33.8536709,12.5961138 34.4211727,12.7238029 34.7995072,12.9791811 L48.9239964,21.2151284 C49.806777,21.7258848 50.3742788,22.6197085 50.3742788,23.7050659 L50.3742788,23.7050659 Z M49.7437212,19.8105482 L35.6822878,11.574601 C34.3581169,10.8084663 32.5925557,10.8084663 31.2683849,11.574601 L17.2069514,19.8105482 C15.8197248,20.5766829 15,22.1089521 15,23.7050659 L15,40.1131159 C15,41.7092297 15.8197248,43.1776544 17.2069514,44.0076336 L31.2683849,52.2435808 C31.9619982,52.6266482 32.7186673,52.8181818 33.4753363,52.8181818 C34.2320054,52.8181818 34.9886745,52.6266482 35.6822878,52.2435808 L49.7437212,44.0076336 C51.1309478,43.241499 51.9506726,41.7092297 51.9506726,40.1131159 L51.9506726,23.7050659 C51.9506726,22.1089521 51.0678921,20.5766829 49.7437212,19.8105482 L49.7437212,19.8105482 Z" id="Fill-1" fill="#FFFFFF"></path>
                    <polygon id="Fill-3" fill="#FFFFFF" points="24.5067265 40.4545455 28.2735426 40.4545455 28.2735426 28.6363636 24.5067265 28.6363636"></polygon>
                    <polygon id="Fill-5" fill="#FFFFFF" points="31.32287 38.0909091 35.0896861 38.0909091 35.0896861 26.2727273 31.32287 26.2727273"></polygon>
                    <polygon id="Fill-6" fill="#FFFFFF" points="38.4977578 35.1818182 42.264574 35.1818182 42.264574 23.3636364 38.4977578 23.3636364"></polygon>
                </g>
            </g>
        </g>
    </g>
</svg>